<svg width="16" height="13" viewBox="0 0 16 13" fill="none" xmlns="http://www.w3.org/2000/svg">
<path d="M4.11816 7.85742C4.67027 7.85763 5.11816 8.30527 5.11816 8.85742C5.11797 9.40941 4.67015 9.85721 4.11816 9.85742H4.11133C3.55917 9.85742 3.11153 9.40954 3.11133 8.85742C3.11133 8.30514 3.55904 7.85742 4.11133 7.85742H4.11816Z" fill="#66758F"/>
<path d="M8.77832 7.85742C9.33036 7.85771 9.77832 8.30532 9.77832 8.85742C9.77812 9.40936 9.33024 9.85713 8.77832 9.85742H7.22266C6.67049 9.85742 6.22285 9.40954 6.22266 8.85742C6.22266 8.30514 6.67037 7.85742 7.22266 7.85742H8.77832Z" fill="#66758F"/>
<path fill-rule="evenodd" clip-rule="evenodd" d="M12.667 0C13.5542 8.70468e-05 14.4031 0.356689 15.0273 0.987305C15.6512 1.61763 16 2.47043 16 3.35742V9.64258C16 10.5296 15.6512 11.3824 15.0273 12.0127C14.4031 12.6433 13.5542 12.9999 12.667 13H3.33301C2.44578 12.9999 1.5969 12.6433 0.972656 12.0127C0.34883 11.3824 0 10.5296 0 9.64258V3.35742C0 2.47043 0.34883 1.61763 0.972656 0.987305C1.5969 0.35669 2.44578 8.71106e-05 3.33301 0H12.667ZM2 9.64258C2 10.0058 2.14334 10.3527 2.39453 10.6064C2.64526 10.8595 2.98298 10.9999 3.33301 11H12.667C13.017 10.9999 13.3547 10.8595 13.6055 10.6064C13.8567 10.3527 14 10.0058 14 9.64258V5.92871H2V9.64258ZM3.33301 2C2.98298 2.00009 2.64526 2.14047 2.39453 2.39355C2.14334 2.64731 2 2.99423 2 3.35742V3.92871H14V3.35742C14 2.99423 13.8567 2.64731 13.6055 2.39355C13.3547 2.14047 13.017 2.00009 12.667 2H3.33301Z" fill="#66758F"/>
</svg>
