<svg viewBox="0 0 16 16" fill="none" xmlns="http://www.w3.org/2000/svg">
<g clip-path="url(#clip0_3221_358)">
<path d="M15 12C15.5523 12 16 12.4477 16 13C16 13.5523 15.5523 14 15 14H4.99999C4.44771 14 3.99999 13.5523 3.99999 13C3.99999 12.4477 4.44771 12 4.99999 12H15ZM15 7C15.5523 7 16 7.44772 16 8C16 8.55228 15.5523 9 15 9H0.999992C0.447707 9 -7.86781e-06 8.55228 -7.86781e-06 8C-7.86781e-06 7.44772 0.447707 7 0.999992 7H15ZM15 2C15.5523 2 16 2.44772 16 3C16 3.55228 15.5523 4 15 4H8.99999C8.44771 4 7.99999 3.55228 7.99999 3C7.99999 2.44772 8.44771 2 8.99999 2H15Z" fill="currentColor"/>
</g>
<defs>
<clipPath id="clip0_3221_358">
<rect width="16" height="16" fill="white"/>
</clipPath>
</defs>
</svg>
