<svg viewBox="0 0 16 16" fill="none" xmlns="http://www.w3.org/2000/svg">
<g clip-path="url(#clip0_3221_357)">
<path d="M13 12C13.5523 12 14 12.4477 14 13C14 13.5523 13.5523 14 13 14H2.99999C2.44771 14 1.99999 13.5523 1.99999 13C1.99999 12.4477 2.44771 12 2.99999 12H13ZM15 7C15.5523 7 16 7.44772 16 8C16 8.55228 15.5523 9 15 9H0.999992C0.447708 9 -7.62939e-06 8.55228 -7.62939e-06 8C-7.62939e-06 7.44772 0.447708 7 0.999992 7H15ZM11 2C11.5523 2 12 2.44772 12 3C12 3.55228 11.5523 4 11 4H4.99999C4.44771 4 3.99999 3.55228 3.99999 3C3.99999 2.44772 4.44771 2 4.99999 2H11Z" fill="currentColor"/>
</g>
<defs>
<clipPath id="clip0_3221_357">
<rect width="16" height="16" fill="white"/>
</clipPath>
</defs>
</svg>
