<svg width="30" height="20" viewBox="0 0 30 20" fill="none" xmlns="http://www.w3.org/2000/svg">
<path d="M3.50547 6.0631C3.58468 6.1941 3.56768 6.36033 3.46384 6.47173L2.86731 7.06299C2.80858 7.1216 2.78802 7.20507 2.81281 7.28425L3.06647 8.08493C3.10781 8.23369 3.04453 8.38693 2.91354 8.46615C2.78252 8.54537 2.61724 8.53039 2.50658 8.42351L1.91615 7.82647C1.85748 7.76759 1.77336 7.74756 1.69406 7.77248L0.901907 8.02326C0.742748 8.06826 0.589671 8.00515 0.510492 7.87422C0.431265 7.7432 0.446253 7.57792 0.553131 7.46726L1.15016 6.87683C1.20905 6.81816 1.22907 6.73404 1.20416 6.65474L0.95338 5.86259C0.909508 5.70529 0.97149 5.55035 1.10242 5.47117C1.23342 5.39196 1.39965 5.40896 1.51105 5.5128L2.10231 6.10933C2.16092 6.16806 2.24439 6.18862 2.32357 6.16383L3.11405 5.91406C3.27134 5.87019 3.42629 5.93217 3.50547 6.0631ZM23.0081 4.49497C23.4835 5.28115 23.381 6.27881 22.7575 6.94724L19.1798 10.4916C18.8256 10.8439 18.7014 11.348 18.8515 11.8246L20.3736 16.6251C20.6221 17.5179 20.2427 18.4378 19.4565 18.9132C18.6704 19.3886 17.6791 19.2975 17.0151 18.6561L13.4716 15.0779C13.1192 14.7235 12.6145 14.5999 12.1378 14.7501L7.38894 16.2557C6.43324 16.5269 5.51369 16.1478 5.03828 15.3617C4.56286 14.5755 4.65398 13.5842 5.29545 12.9202L8.87362 9.3767C9.22798 9.02434 9.35165 8.51957 9.20145 8.04293L7.69578 3.29405C7.43142 2.34959 7.80369 1.4188 8.58986 0.943389C9.37604 0.467972 10.3737 0.570546 11.0421 1.19399L14.5865 4.77166C14.9388 5.1259 15.4429 5.25007 15.9194 5.09999L20.6575 3.60089C21.6019 3.33654 22.5327 3.7088 23.0081 4.49497ZM29.0334 11.0768C29.1918 11.3388 29.1578 11.6713 28.9501 11.8941L27.7574 13.0753C27.6393 13.1927 27.5977 13.3616 27.6477 13.5205L28.1554 15.1205C28.2381 15.418 28.1115 15.7245 27.8495 15.8829C27.5875 16.0414 27.2569 16.0114 27.0356 15.7977L25.8544 14.6049C25.737 14.4868 25.5689 14.4448 25.4101 14.4948L23.8271 14.9967C23.5085 15.087 23.2019 14.9611 23.0434 14.6991C22.885 14.437 22.915 14.1065 23.1287 13.8852L24.3214 12.704C24.4395 12.5866 24.4816 12.4185 24.4316 12.2596L23.9297 10.6767C23.8416 10.3618 23.9652 10.0515 24.2273 9.89299C24.4893 9.73455 24.8217 9.76857 25.0446 9.97624L26.2257 11.169C26.3432 11.2871 26.5121 11.3287 26.6709 11.2786L28.2497 10.7793C28.5645 10.6911 28.8749 10.8148 29.0334 11.0768Z" fill="#19212E"/>
</svg>
