<svg fill="currentColor" viewBox="0 0 16 16" xmlns="http://www.w3.org/2000/svg">
  <path
    d="M13.25 0C14.7648 0 16 1.23522 16 2.75V13.25C16 14.7648 14.7648 16 13.25 16H2.75C1.23522 16 0 14.7648 0 13.25V2.75C0 1.23522 1.23522 0 2.75 0H13.25ZM2.75 2C2.33978 2 2 2.33978 2 2.75V13.25C2 13.6602 2.33978 14 2.75 14H13.25C13.6602 14 14 13.6602 14 13.25V2.75C14 2.33978 13.6602 2 13.25 2H2.75ZM8.875 3.5C10.3898 3.5 11.625 4.73522 11.625 6.25V11.5C11.625 12.0523 11.1773 12.5 10.625 12.5C10.0727 12.5 9.625 12.0523 9.625 11.5V9.875H6.375V11.5C6.375 12.0523 5.92728 12.5 5.375 12.5C4.82272 12.5 4.375 12.0523 4.375 11.5V6.25C4.375 4.73522 5.61022 3.5 7.125 3.5H8.875ZM7.125 5.5C6.71478 5.5 6.375 5.83978 6.375 6.25V7.875H9.625V6.25C9.625 5.83978 9.28522 5.5 8.875 5.5H7.125Z"
  />
</svg>
