<svg width="16" height="16" viewBox="0 0 16 16" fill="none" xmlns="http://www.w3.org/2000/svg">
  <path
    d="M0 4C0 1.79086 1.79086 0 4 0H12C14.2091 0 16 1.79086 16 4V12C16 14.2091 14.2091 16 12 16H4C1.79086 16 0 14.2091 0 12V4Z"
    fill="currentColor"
  />
  <path
    d="M4.14645 8.35355C4.24021 8.44732 4.36739 8.5 4.5 8.5H11.5C11.6326 8.5 11.7598 8.44732 11.8536 8.35355C11.9473 8.25979 12 8.13261 12 8C12 7.86739 11.9473 7.74021 11.8536 7.64645C11.7598 7.55268 11.6326 7.5 11.5 7.5H4.5C4.36739 7.5 4.24021 7.55268 4.14645 7.64645C4.05268 7.74021 4 7.86739 4 8C4 8.13261 4.05268 8.25979 4.14645 8.35355Z"
    fill="white"
  />
</svg>
