<svg viewBox="0 0 12 12" xmlns="http://www.w3.org/2000/svg">
  <path
    fill="currentColor"
    d="M2.68222 0.47005C2.72 0.379096 2.77537 0.296467 2.84516 0.226885C2.91507 0.155525 2.99856 0.0988264 3.09073 0.0601158C3.1829 0.0214052 3.28189 0.00146482 3.38189 0.00146481C3.48189 0.00146481 3.58088 0.0214052 3.67305 0.0601158C3.76522 0.0988264 3.84871 0.155525 3.91862 0.226885L9.0457 5.20917C9.25656 5.41989 9.375 5.70552 9.375 6.00334C9.375 6.30115 9.25656 6.58679 9.0457 6.79751L3.91862 11.776C3.84871 11.8474 3.76522 11.9041 3.67305 11.9428C3.58088 11.9815 3.48189 12.0015 3.38189 12.0015C3.28189 12.0015 3.1829 11.9815 3.09073 11.9428C2.99856 11.9041 2.91507 11.8474 2.84516 11.776C2.70535 11.6357 2.62687 11.4458 2.62687 11.2478L2.625 0.756955C2.625 0.658497 2.64444 0.561003 2.68222 0.47005Z"
  />
</svg>
