<svg
  width="14"
  height="16"
  viewBox="0 0 14 16"
  fill="currentColor"
  xmlns="http://www.w3.org/2000/svg"
>
  <path
    fill-rule="evenodd"
    clip-rule="evenodd"
    d="M10.4837 0.124845C10.8547 0.329981 11.0561 0.74685 10.9864 1.16518L10.1806 5.99951H13C13.4046 5.99951 13.7692 6.24336 13.924 6.61733C14.0787 6.99129 13.9931 7.42171 13.7069 7.70782L5.70692 15.7071C5.39946 16.0146 4.92872 16.0881 4.54227 15.889C4.15582 15.6899 3.94216 15.2638 4.01367 14.8348L4.81946 10.0005H1.00004C0.584804 10.0005 0.212769 9.74372 0.065264 9.35534C-0.0822411 8.96696 0.0254785 8.52779 0.335921 8.25186L9.33592 0.252532C9.65281 -0.0291261 10.1127 -0.0802913 10.4837 0.124845Z"
  />
</svg>
