<svg xmlns="http://www.w3.org/2000/svg" viewBox="0 0 296.36 68.61"><title>Braintree logo</title><path d="M509,539.5l-1.37,2.64h-1.69l6.15-11.53h1.52l2.49,11.53h-1.6l-.55-2.64Zm3.54-6.8-2.84,5.45h4Z" transform="translate(-363.82 -477.7)"/><path d="M614.57,541.14a3,3,0,0,0,1.5-.34,2.21,2.21,0,0,0,.89-.88,2.32,2.32,0,0,0,.28-1.1A1.37,1.37,0,0,0,617,538a2.7,2.7,0,0,0-.94-.69l-1.45-.62a4.88,4.88,0,0,1-1.78-1.2,2.4,2.4,0,0,1-.54-1.59,3.16,3.16,0,0,1,.52-1.8,3.33,3.33,0,0,1,1.45-1.19,5.14,5.14,0,0,1,2.13-.42,5.67,5.67,0,0,1,1.76.28,3.76,3.76,0,0,1,1.32.78l-.25,1.56a4.38,4.38,0,0,0-3-1.19,2.66,2.66,0,0,0-1.7.52,1.61,1.61,0,0,0-.66,1.32,1,1,0,0,0,.33.77,4.57,4.57,0,0,0,1.2.72l1.42.64a4.33,4.33,0,0,1,1.63,1.23,2.62,2.62,0,0,1,.48,1.58,4.21,4.21,0,0,1-.45,1.94A3.46,3.46,0,0,1,617,542a5.24,5.24,0,0,1-2.57.56,5,5,0,0,1-3.39-1.09l.27-1.65a4.9,4.9,0,0,0,3.31,1.3" transform="translate(-363.82 -477.7)"/><path d="M627,534.7a3.38,3.38,0,0,1,.83,2.36,5.24,5.24,0,0,1-.05.8,7.37,7.37,0,0,1-.17.75h-6.29a2.42,2.42,0,0,0,.65,1.93,2.63,2.63,0,0,0,1.91.68,5.22,5.22,0,0,0,1.52-.21,5.72,5.72,0,0,0,1.35-.63l-.2,1.25a5.3,5.3,0,0,1-3,.87,3.89,3.89,0,0,1-2-.49,3.26,3.26,0,0,1-1.29-1.36,4.25,4.25,0,0,1-.44-2,5.21,5.21,0,0,1,.53-2.22,4.9,4.9,0,0,1,1.62-1.92,4.48,4.48,0,0,1,2.67-.78,3.05,3.05,0,0,1,2.38.91m-4.4,1a3.46,3.46,0,0,0-1.08,1.68h4.85a3.23,3.23,0,0,0,0-.37,2.07,2.07,0,0,0-.5-1.47,1.86,1.86,0,0,0-1.42-.53,2.74,2.74,0,0,0-1.86.69" transform="translate(-363.82 -477.7)"/><path d="M633,535.3a2.23,2.23,0,0,0-1.67.71,3.75,3.75,0,0,0-.9,2.06l-.65,4.13h-1.49l1.29-8.16H631l-.22,1.39a2.9,2.9,0,0,1,2.41-1.44,4.07,4.07,0,0,1,.65,0l-.2,1.3a4.06,4.06,0,0,0-.65,0" transform="translate(-363.82 -477.7)"/><polygon points="273.65 64.51 272.26 64.51 270.32 56.36 271.81 56.36 273.2 62.72 276.59 56.36 278.14 56.36 273.65 64.51"/><path d="M642.87,542.21h-1.49l1.25-8.16h1.5Zm.18-9.73a.81.81,0,0,1-.23-.59,1,1,0,0,1,.33-.75,1.08,1.08,0,0,1,.77-.32.77.77,0,0,1,.58.23.81.81,0,0,1,.23.59,1,1,0,0,1-.33.74,1.07,1.07,0,0,1-.77.33.76.76,0,0,1-.58-.23" transform="translate(-363.82 -477.7)"/><path d="M646.35,542a3.56,3.56,0,0,1-1.29-1.36,3.91,3.91,0,0,1-.47-1.9,5.21,5.21,0,0,1,.59-2.44,4.65,4.65,0,0,1,1.72-1.83,5,5,0,0,1,2.65-.69,3.72,3.72,0,0,1,2.39.74L651.7,536a2.92,2.92,0,0,0-2.22-.9,3.11,3.11,0,0,0-1.73.49,3.39,3.39,0,0,0-1.18,1.3,3.67,3.67,0,0,0-.42,1.72,2.58,2.58,0,0,0,.64,1.81,2.24,2.24,0,0,0,1.74.69,4,4,0,0,0,1.37-.25,3.67,3.67,0,0,0,1.22-.74l-.23,1.54a4.63,4.63,0,0,1-1.3.62,5.1,5.1,0,0,1-1.39.18,3.46,3.46,0,0,1-1.84-.5" transform="translate(-363.82 -477.7)"/><path d="M659.35,534.7a3.38,3.38,0,0,1,.83,2.36,5.15,5.15,0,0,1-.05.8,7.35,7.35,0,0,1-.17.75h-6.29a2.42,2.42,0,0,0,.65,1.93,2.63,2.63,0,0,0,1.91.68,5.22,5.22,0,0,0,1.52-.21,5.72,5.72,0,0,0,1.35-.63l-.2,1.25a5.3,5.3,0,0,1-3,.87,3.89,3.89,0,0,1-2-.49,3.26,3.26,0,0,1-1.29-1.36,4.24,4.24,0,0,1-.44-2,5.21,5.21,0,0,1,.53-2.22,4.9,4.9,0,0,1,1.62-1.92,4.48,4.48,0,0,1,2.67-.78,3.05,3.05,0,0,1,2.38.91m-4.4,1a3.46,3.46,0,0,0-1.08,1.68h4.85a3.23,3.23,0,0,0,0-.37,2.07,2.07,0,0,0-.5-1.47,1.86,1.86,0,0,0-1.42-.53,2.74,2.74,0,0,0-1.86.69" transform="translate(-363.82 -477.7)"/><path d="M578.56,524.63h-6.33a.88.88,0,0,0-.87.74l-2.56,16.22a.53.53,0,0,0,.52.61h3.25a.62.62,0,0,0,.61-.52l.73-4.6a.88.88,0,0,1,.87-.74h2c4.17,0,6.57-2,7.2-6a4.87,4.87,0,0,0-.81-4.08c-.9-1.06-2.49-1.62-4.61-1.62m.73,5.92c-.35,2.27-2.08,2.27-3.76,2.27h-1l.67-4.24a.53.53,0,0,1,.52-.45h.44c1.14,0,2.22,0,2.78.65a2.11,2.11,0,0,1,.31,1.76" transform="translate(-363.82 -477.7)"/><path d="M533.44,524.63h-6.33a.88.88,0,0,0-.87.74l-2.56,16.22a.53.53,0,0,0,.52.61h3a.88.88,0,0,0,.87-.74l.69-4.38a.88.88,0,0,1,.87-.74h2c4.17,0,6.57-2,7.2-6a4.87,4.87,0,0,0-.81-4.08c-.9-1.06-2.49-1.62-4.61-1.62m.73,5.92c-.35,2.27-2.08,2.27-3.76,2.27h-1l.67-4.24a.53.53,0,0,1,.52-.45h.44c1.14,0,2.22,0,2.78.65a2.11,2.11,0,0,1,.31,1.76" transform="translate(-363.82 -477.7)"/><path d="M552.35,530.49h-3a.53.53,0,0,0-.52.45l-.13.85-.21-.31c-.66-1-2.12-1.27-3.58-1.27a7,7,0,0,0-6.76,6.09,5.72,5.72,0,0,0,1.13,4.65,4.74,4.74,0,0,0,3.81,1.54,5.8,5.8,0,0,0,4.19-1.73l-.14.84a.53.53,0,0,0,.52.61h2.73a.88.88,0,0,0,.87-.74l1.64-10.37a.53.53,0,0,0-.52-.61m-4.22,5.9a3.38,3.38,0,0,1-3.42,2.89,2.35,2.35,0,0,1-2.51-2.95,3.39,3.39,0,0,1,3.4-2.91,2.55,2.55,0,0,1,2,.83,2.61,2.61,0,0,1,.51,2.14" transform="translate(-363.82 -477.7)"/><path d="M597.47,530.49h-3a.53.53,0,0,0-.52.45l-.13.85-.21-.31c-.66-1-2.12-1.27-3.58-1.27a7,7,0,0,0-6.76,6.09,5.72,5.72,0,0,0,1.13,4.65,4.74,4.74,0,0,0,3.81,1.54,5.8,5.8,0,0,0,4.19-1.73l-.14.84a.53.53,0,0,0,.52.61h2.73a.88.88,0,0,0,.87-.74L598,531.1a.53.53,0,0,0-.52-.61m-4.22,5.9a3.38,3.38,0,0,1-3.42,2.89,2.35,2.35,0,0,1-2.51-2.95,3.39,3.39,0,0,1,3.4-2.91,2.55,2.55,0,0,1,2,.83,2.61,2.61,0,0,1,.51,2.14" transform="translate(-363.82 -477.7)"/><path d="M568.49,530.49h-3a.88.88,0,0,0-.73.39l-4.2,6.19-1.78-5.94a.88.88,0,0,0-.84-.63h-3a.53.53,0,0,0-.5.7l3.35,9.84-3.15,4.45a.53.53,0,0,0,.43.83h3a.88.88,0,0,0,.72-.38l10.13-14.61a.53.53,0,0,0-.43-.83" transform="translate(-363.82 -477.7)"/><path d="M601,525.08l-2.6,16.52a.53.53,0,0,0,.52.61h2.61a.88.88,0,0,0,.87-.74L605,525.24a.53.53,0,0,0-.52-.61h-2.92a.53.53,0,0,0-.52.45" transform="translate(-363.82 -477.7)"/><path d="M363.82,516.55v-5.15h4.06V486.54h-4.06v-5.15h16.24c7.45,0,12,3.45,12,9.46a7.74,7.74,0,0,1-5.21,7.52c4.18,1.15,7.15,4.12,7.15,8.18,0,6.42-5,10-13.09,10Zm9.64-30v9.58h6.06c4.55,0,6.91-1.7,6.91-4.79s-2.42-4.79-7-4.79Zm0,24.85h6.91c5.33,0,8-1.76,8-5.15s-2.85-5.15-8.42-5.15h-6.49Z" transform="translate(-363.82 -477.7)"/><path d="M423.46,498.24a4.19,4.19,0,0,0-4.12-3.27c-4.67,0-9.09,3.45-9.09,9.76v6.67h9v5.15h-20v-5.15h5.7V495.88h-4.49v-5.15h9.76v4.36a10.33,10.33,0,0,1,9.39-5.21c5,0,8.06,2.85,9,6.91Z" transform="translate(-363.82 -477.7)"/><path d="M450.74,501.51v-1.45c0-3.64-2.91-5.15-6.06-5.15A11.11,11.11,0,0,0,437.1,498l-3.52-3.82a15.62,15.62,0,0,1,11.09-4.3c6.49,0,11.52,3.45,11.52,10v11.52h3.76v5.15h-9.21v-2.73c-1.39,2.24-5.15,3.58-8.85,3.58-5.33,0-9.94-2.73-9.94-8.12,0-6.36,6.24-8.79,11.94-8.79A25.13,25.13,0,0,1,450.74,501.51Zm0,4.61a21.21,21.21,0,0,0-6.61-1.09c-3.39,0-6.67,1.09-6.67,4.18,0,2.3,2.06,3.39,4.91,3.39,3.94,0,8.36-2.12,8.36-5.76Z" transform="translate(-363.82 -477.7)"/><path d="M492.32,511.39v5.15H466.25v-5.15H477V495.88H468.8v-5.15h13.58v20.67Zm-9.94-25.82h-6V477.7h6Z" transform="translate(-363.82 -477.7)"/><path d="M498.74,511.39h3.94V495.88H499v-5.15h9v3.33c1.58-2.55,4.85-4.18,8.85-4.18,5.76,0,9.88,3.64,9.88,9.52v12h3.94v5.15H517.23v-5.15h4.12V500.85c0-4.49-2.73-5.76-5.21-5.76-4.06,0-8.12,3-8.12,7.7v8.61h4.12v5.15H498.74Z" transform="translate(-363.82 -477.7)"/><path d="M539.2,495.88h-6.73v-5.15h6.73v-9.33h5.33v9.33h12.55v5.15H544.53v10.85c0,4,2.79,5.64,6,5.64a10.8,10.8,0,0,0,7.46-3.58l3.58,3.7a14.79,14.79,0,0,1-11,4.91c-6.49,0-11.33-3.58-11.33-10.49Z" transform="translate(-363.82 -477.7)"/><path d="M590.66,498.24a4.19,4.19,0,0,0-4.12-3.27c-4.67,0-9.09,3.45-9.09,9.76v6.67h9v5.15h-20v-5.15h5.7V495.88h-4.49v-5.15h9.76v4.36a10.33,10.33,0,0,1,9.39-5.21c5,0,8.06,2.85,9,6.91Z" transform="translate(-363.82 -477.7)"/><path d="M626.54,512.61c-2.67,2.79-7.39,4.79-12.67,4.79-8.67,0-14.73-5.82-14.73-13.76s5.88-13.76,14.06-13.76S627,496.12,627,504.61v.91H604.78c.91,4.3,4.49,6.91,9.15,6.91a12.41,12.41,0,0,0,9-3.58ZM605,501H620.9a7.84,7.84,0,0,0-7.7-6.18A8.15,8.15,0,0,0,605,501Z" transform="translate(-363.82 -477.7)"/><path d="M659.7,512.61c-2.67,2.79-7.39,4.79-12.67,4.79-8.67,0-14.73-5.82-14.73-13.76s5.88-13.76,14.06-13.76,13.82,6.24,13.82,14.73v.91H637.94c.91,4.3,4.49,6.91,9.15,6.91a12.41,12.41,0,0,0,9-3.58ZM638.18,501h15.88a7.84,7.84,0,0,0-7.7-6.18A8.15,8.15,0,0,0,638.18,501Z" transform="translate(-363.82 -477.7)"/></svg>