<?xml version="1.0" encoding="UTF-8"?>
<svg xmlns="http://www.w3.org/2000/svg" xmlns:xlink="http://www.w3.org/1999/xlink" width="64pt" height="64pt" viewBox="0 0 64 64" version="1.1">
<g id="surface1">
<path style=" stroke:none;fill-rule:evenodd;fill:rgb(12.156863%,2.745098%,30.980392%);fill-opacity:1;" d="M 16.664062 -0.0273438 C 26.855469 -0.0273438 37.042969 -0.0273438 47.230469 -0.0273438 C 53.476562 0.582031 58.246094 3.535156 61.542969 8.832031 C 62.9375 11.265625 63.75 13.878906 63.972656 16.664062 C 63.972656 26.855469 63.972656 37.042969 63.972656 47.230469 C 63.367188 53.476562 60.414062 58.246094 55.117188 61.542969 C 52.683594 62.9375 50.070312 63.75 47.28125 63.972656 C 37.09375 63.972656 26.90625 63.972656 16.71875 63.972656 C 10.472656 63.367188 5.703125 60.414062 2.40625 55.117188 C 1.011719 52.683594 0.199219 50.070312 -0.0273438 47.28125 C -0.0273438 37.09375 -0.0273438 26.90625 -0.0273438 16.71875 C 0.582031 10.472656 3.535156 5.703125 8.832031 2.40625 C 11.265625 1.011719 13.878906 0.199219 16.664062 -0.0273438 Z M 16.664062 -0.0273438 "/>
<path style=" stroke:none;fill-rule:evenodd;fill:rgb(1.568627%,66.666667%,37.647059%);fill-opacity:1;" d="M 24.910156 43.035156 C 24.753906 43.035156 24.601562 43.035156 24.449219 43.035156 C 24.449219 35.660156 24.449219 28.289062 24.449219 20.914062 C 24.734375 18.878906 25.777344 17.371094 27.570312 16.382812 C 28.140625 16.113281 28.738281 15.925781 29.363281 15.820312 C 36.804688 15.796875 44.246094 15.785156 51.6875 15.796875 C 51.519531 18.75 50.019531 20.632812 47.179688 21.453125 C 46.976562 21.496094 46.773438 21.53125 46.566406 21.554688 C 41.121094 21.582031 35.679688 21.589844 30.234375 21.582031 C 30.242188 26.972656 30.234375 32.367188 30.207031 37.761719 C 29.945312 39.914062 28.863281 41.492188 26.957031 42.496094 C 26.308594 42.804688 25.625 42.984375 24.910156 43.035156 Z M 24.910156 43.035156 "/>
<path style=" stroke:none;fill-rule:evenodd;fill:rgb(4.313725%,50.588235%,36.470588%);fill-opacity:1;" d="M 24.449219 20.914062 C 24.449219 28.289062 24.449219 35.660156 24.449219 43.035156 C 24.601562 43.035156 24.753906 43.035156 24.910156 43.035156 C 24.75 43.082031 24.578125 43.101562 24.398438 43.085938 C 24.378906 35.6875 24.398438 28.296875 24.449219 20.914062 Z M 24.449219 20.914062 "/>
<path style=" stroke:none;fill-rule:evenodd;fill:rgb(54.509804%,35.294118%,19.607843%);fill-opacity:1;" d="M 32.027344 23.527344 C 36.214844 23.476562 40.414062 23.457031 44.621094 23.476562 C 44.636719 23.621094 44.621094 23.757812 44.570312 23.886719 C 44.570312 23.765625 44.570312 23.644531 44.570312 23.527344 C 40.40625 23.527344 36.242188 23.527344 32.078125 23.527344 C 32.058594 23.527344 32.042969 23.527344 32.027344 23.527344 Z M 32.027344 23.527344 "/>
<path style=" stroke:none;fill-rule:evenodd;fill:rgb(98.039216%,68.627451%,8.627451%);fill-opacity:1;" d="M 17.074219 50.765625 C 16.921875 50.765625 16.769531 50.765625 16.613281 50.765625 C 16.613281 43.476562 16.613281 36.191406 16.613281 28.902344 C 16.871094 26.488281 18.117188 24.804688 20.351562 23.859375 C 21.011719 23.601562 21.695312 23.492188 22.398438 23.527344 C 22.425781 31.003906 22.398438 38.476562 22.324219 45.953125 C 21.691406 48.777344 19.941406 50.382812 17.074219 50.765625 Z M 17.074219 50.765625 "/>
<path style=" stroke:none;fill-rule:evenodd;fill:rgb(98.039216%,68.627451%,8.627451%);fill-opacity:1;" d="M 32.078125 23.527344 C 36.242188 23.527344 40.40625 23.527344 44.570312 23.527344 C 44.570312 23.644531 44.570312 23.765625 44.570312 23.886719 C 44.335938 26.171875 43.195312 27.820312 41.140625 28.824219 C 40.5625 29.058594 39.964844 29.203125 39.347656 29.261719 C 36.921875 29.261719 34.5 29.261719 32.078125 29.261719 C 32.078125 27.347656 32.078125 25.4375 32.078125 23.527344 Z M 32.078125 23.527344 "/>
<path style=" stroke:none;fill-rule:evenodd;fill:rgb(54.509804%,35.686275%,19.607843%);fill-opacity:1;" d="M 16.613281 28.902344 C 16.613281 36.191406 16.613281 43.476562 16.613281 50.765625 C 16.769531 50.765625 16.921875 50.765625 17.074219 50.765625 C 16.914062 50.816406 16.746094 50.832031 16.5625 50.816406 C 16.546875 43.503906 16.5625 36.199219 16.613281 28.902344 Z M 16.613281 28.902344 "/>
<path style=" stroke:none;fill-rule:evenodd;fill:rgb(76.470588%,52.156863%,14.117647%);fill-opacity:1;" d="M 32.027344 23.527344 C 32.042969 23.527344 32.058594 23.527344 32.078125 23.527344 C 32.078125 25.4375 32.078125 27.347656 32.078125 29.261719 C 34.5 29.261719 36.921875 29.261719 39.347656 29.261719 C 36.914062 29.3125 34.476562 29.328125 32.027344 29.3125 C 32.027344 27.382812 32.027344 25.453125 32.027344 23.527344 Z M 32.027344 23.527344 "/>
</g>
</svg>
