<?xml version="1.0" encoding="UTF-8"?>
<svg
  xmlns="http://www.w3.org/2000/svg"
  xmlns:xlink="http://www.w3.org/1999/xlink"
  viewBox="0 0 40 40"
  version="1.1"
>
  <g id="surface1">
    <path
      style="
        stroke: none;
        fill-rule: evenodd;
        fill: rgb(12.156863%, 2.745098%, 30.980392%);
        fill-opacity: 1;
      "
      d="M 10.414062 -0.015625 C 16.785156 -0.015625 23.152344 -0.015625 29.519531 -0.015625 C 33.421875 0.363281 36.402344 2.207031 38.464844 5.519531 C 39.335938 7.042969 39.84375 8.675781 39.984375 10.414062 C 39.984375 16.785156 39.984375 23.152344 39.984375 29.519531 C 39.605469 33.421875 37.757812 36.402344 34.449219 38.464844 C 32.925781 39.335938 31.292969 39.84375 29.550781 39.984375 C 23.183594 39.984375 16.816406 39.984375 10.449219 39.984375 C 6.546875 39.605469 3.5625 37.757812 1.503906 34.449219 C 0.632812 32.925781 0.125 31.292969 -0.015625 29.550781 C -0.015625 23.183594 -0.015625 16.816406 -0.015625 10.449219 C 0.363281 6.546875 2.207031 3.5625 5.519531 1.503906 C 7.042969 0.632812 8.675781 0.125 10.414062 -0.015625 Z M 10.414062 -0.015625 "
    />
    <path
      style="
        stroke: none;
        fill-rule: evenodd;
        fill: rgb(1.568627%, 66.666667%, 37.647059%);
        fill-opacity: 1;
      "
      d="M 15.566406 26.894531 C 15.472656 26.894531 15.375 26.894531 15.28125 26.894531 C 15.28125 22.289062 15.28125 17.679688 15.28125 13.070312 C 15.460938 11.800781 16.109375 10.855469 17.230469 10.238281 C 17.589844 10.070312 17.960938 9.953125 18.351562 9.886719 C 23.003906 9.871094 27.652344 9.867188 32.304688 9.871094 C 32.199219 11.71875 31.261719 12.894531 29.488281 13.40625 C 29.359375 13.433594 29.234375 13.457031 29.105469 13.472656 C 25.703125 13.488281 22.296875 13.492188 18.894531 13.488281 C 18.902344 16.859375 18.894531 20.230469 18.878906 23.601562 C 18.71875 24.945312 18.039062 25.933594 16.847656 26.558594 C 16.441406 26.753906 16.015625 26.863281 15.566406 26.894531 Z M 15.566406 26.894531 "
    />
    <path
      style="
        stroke: none;
        fill-rule: evenodd;
        fill: rgb(4.313725%, 50.588235%, 36.470588%);
        fill-opacity: 1;
      "
      d="M 15.28125 13.070312 C 15.28125 17.679688 15.28125 22.289062 15.28125 26.894531 C 15.375 26.894531 15.472656 26.894531 15.566406 26.894531 C 15.46875 26.925781 15.363281 26.9375 15.246094 26.929688 C 15.238281 22.304688 15.246094 17.683594 15.28125 13.070312 Z M 15.28125 13.070312 "
    />
    <path
      style="
        stroke: none;
        fill-rule: evenodd;
        fill: rgb(54.509804%, 35.294118%, 19.607843%);
        fill-opacity: 1;
      "
      d="M 20.015625 14.703125 C 22.632812 14.671875 25.257812 14.660156 27.886719 14.671875 C 27.898438 14.765625 27.886719 14.851562 27.855469 14.929688 C 27.855469 14.851562 27.855469 14.777344 27.855469 14.703125 C 25.253906 14.703125 22.652344 14.703125 20.046875 14.703125 C 20.039062 14.703125 20.027344 14.703125 20.015625 14.703125 Z M 20.015625 14.703125 "
    />
    <path
      style="
        stroke: none;
        fill-rule: evenodd;
        fill: rgb(98.039216%, 68.627451%, 8.627451%);
        fill-opacity: 1;
      "
      d="M 10.671875 31.726562 C 10.574219 31.726562 10.480469 31.726562 10.382812 31.726562 C 10.382812 27.171875 10.382812 22.617188 10.382812 18.0625 C 10.542969 16.554688 11.324219 15.503906 12.71875 14.910156 C 13.132812 14.75 13.558594 14.683594 14 14.703125 C 14.015625 19.375 14 24.050781 13.953125 28.71875 C 13.558594 30.484375 12.464844 31.488281 10.671875 31.726562 Z M 10.671875 31.726562 "
    />
    <path
      style="
        stroke: none;
        fill-rule: evenodd;
        fill: rgb(98.039216%, 68.627451%, 8.627451%);
        fill-opacity: 1;
      "
      d="M 20.046875 14.703125 C 22.652344 14.703125 25.253906 14.703125 27.855469 14.703125 C 27.855469 14.777344 27.855469 14.851562 27.855469 14.929688 C 27.710938 16.359375 26.996094 17.386719 25.710938 18.015625 C 25.351562 18.164062 24.976562 18.253906 24.59375 18.289062 C 23.078125 18.289062 21.5625 18.289062 20.046875 18.289062 C 20.046875 17.09375 20.046875 15.898438 20.046875 14.703125 Z M 20.046875 14.703125 "
    />
    <path
      style="
        stroke: none;
        fill-rule: evenodd;
        fill: rgb(54.509804%, 35.686275%, 19.607843%);
        fill-opacity: 1;
      "
      d="M 10.382812 18.0625 C 10.382812 22.617188 10.382812 27.171875 10.382812 31.726562 C 10.480469 31.726562 10.574219 31.726562 10.671875 31.726562 C 10.570312 31.757812 10.464844 31.769531 10.351562 31.761719 C 10.339844 27.1875 10.351562 22.625 10.382812 18.0625 Z M 10.382812 18.0625 "
    />
    <path
      style="
        stroke: none;
        fill-rule: evenodd;
        fill: rgb(76.470588%, 52.156863%, 14.117647%);
        fill-opacity: 1;
      "
      d="M 20.015625 14.703125 C 20.027344 14.703125 20.039062 14.703125 20.046875 14.703125 C 20.046875 15.898438 20.046875 17.09375 20.046875 18.289062 C 21.5625 18.289062 23.078125 18.289062 24.59375 18.289062 C 23.070312 18.320312 21.546875 18.332031 20.015625 18.320312 C 20.015625 17.113281 20.015625 15.910156 20.015625 14.703125 Z M 20.015625 14.703125 "
    />
  </g>
</svg>
