<svg version="1.1" id="Layer_1" xmlns:x="ns_extend;" xmlns:i="ns_ai;" xmlns:graph="ns_graphs;" xmlns="http://www.w3.org/2000/svg" xmlns:xlink="http://www.w3.org/1999/xlink" x="0px" y="0px" viewBox="0 0 176 144.7" style="enable-background:new 0 0 176 144.7;" xml:space="preserve">
 <style type="text/css">
  .st0{fill:#009A46;}
	.st1{fill:#FF5805;}
	.st2{fill:#F5AFCB;}
	.st3{fill:#FF9B00;}
 </style>
 <metadata>
  <sfw xmlns="ns_sfw;">
   <slices>
   </slices>
   <sliceSourceBounds bottomLeftOrigin="true" height="144.7" width="176" x="-258.1" y="-272.6">
   </sliceSourceBounds>
  </sfw>
 </metadata>
 <g>
  <path class="st0" d="M0,31.6c0-9.4,2.7-17.4,8.5-23.1l10,10C7.4,29.6,17.1,64.1,48.8,95.8s66.2,41.4,77.3,30.3l10,10
		c-18.8,18.8-61.5,5.4-97.3-30.3C14,80.9,0,52.8,0,31.6z">
  </path>
  <path class="st1" d="M63.1,144.7c-9.4,0-17.4-2.7-23.1-8.5l10-10c11.1,11.1,45.6,1.4,77.3-30.3s41.4-66.2,30.3-77.3l10-10
		c18.8,18.8,5.4,61.5-30.3,97.3C112.4,130.7,84.2,144.7,63.1,144.7z">
  </path>
  <path class="st2" d="M140.5,91.6c-6.1-17.5-18.5-36.2-34.9-52.6C69.8,3.2,27.1-10.1,8.3,8.6l0,0C7,10,8.2,13.3,10.9,16
		s6.1,3.9,7.4,2.6c11.1-11.1,45.6-1.4,77.3,30.3c15,15,26.2,31.8,31.6,47.3c4.7,13.6,4.3,24.6-1.2,30.1l0,0
		c-1.3,1.3-0.2,4.6,2.6,7.4s6.1,3.9,7.4,2.6C145.6,126.6,147.2,110.7,140.5,91.6z">
  </path>
  <path class="st3" d="M167.5,8.6C157.9-1,142-2.6,122.9,4c-17.5,6.1-36.2,18.5-52.6,34.9c-35.8,35.8-49.1,78.5-30.3,97.3l0,0
		c1.3,1.3,4.7,0.2,7.4-2.6s3.9-6.1,2.6-7.4c-11.1-11.1-1.4-45.6,30.3-77.3c15-15,31.8-26.2,47.2-31.6c13.6-4.7,24.6-4.3,30.1,1.2
		l0,0c1.3,1.3,4.6,0.2,7.4-2.6S168.9,10,167.5,8.6z">
  </path>
 </g>
</svg>