<svg width="24" height="24" viewBox="0 0 24 24" fill="none" xmlns="http://www.w3.org/2000/svg">
  <g clip-path="url(#clip0_5_20)">
    <path fill-rule="evenodd" clip-rule="evenodd" d="M24 0H0V13.125H8.34345L8.9631 11.055H6.75L7.08933 9.525H9.33198L10.2762 6.3H12.209L11.2648 9.525H14.1566L15.1008 6.3H17.0484L16.1041 9.525H24V0ZM24 11.055H15.7352L15.1156 13.125H17.4L17.0484 14.655H14.7467L13.8615 17.7H11.9139L12.8139 14.655H9.93687L9.02214 17.7H7.08933L7.98933 14.655H0V24H24V11.055ZM10.9107 11.055L10.3058 13.125H13.1828L13.7877 11.055H10.9107Z" fill="#0C1E3D"/>
  </g>
  <defs>
    <clipPath id="clip0_5_20">
      <rect width="24" height="24" rx="4" fill="white"/>
    </clipPath>
  </defs>
</svg>
