<svg xmlns="http://www.w3.org/2000/svg" viewBox="0 0 41 41" fill="none">
  <g clip-path="url(#clip0_11665_82859)">
    <path
      d="M40.2777 8.94287C40.2777 4.52459 36.696 0.942871 32.2777 0.942871H8.27771C3.85943 0.942871 0.27771 4.52459 0.27771 8.94287V22.8179H14.1834L15.2162 19.3679H11.5277L12.0933 16.8179H15.831L17.4048 11.4429H20.6261L19.0523 16.8179H23.872L25.4457 11.4429H28.6916L27.1179 16.8179H40.2777V8.94287Z"
      fill="#0C1E3D" />
    <path
      d="M40.2777 19.3679H26.5031L25.4703 22.8179H29.2777L28.6916 25.3679H24.8556L23.3802 30.4429H20.1343L21.6343 25.3679H16.8392L15.3146 30.4429H12.0933L13.5933 25.3679H0.27771V32.9429C0.27771 37.3611 3.85943 40.9429 8.27771 40.9429H32.2777C36.696 40.9429 40.2777 37.3612 40.2777 32.9429V19.3679Z"
      fill="#0C1E3D" />
    <path d="M18.4621 19.3679L17.4539 22.8179H22.249L23.2572 19.3679H18.4621Z" fill="#0C1E3D" />
  </g>
  <defs>
    <clipPath id="clip0_11665_82859">
      <rect width="40" height="40" fill="white" transform="translate(0.27771 0.942871)" />
    </clipPath>
  </defs>
</svg>
