<svg xmlns="http://www.w3.org/2000/svg" fill="none" viewBox="0 0 40 40"><rect width="40" height="40" fill="#3D2798" rx="12"/><g clip-path="url(#a)"><path fill="#FDFDFE" d="M26.1 22.7h-1.09c-.56 0-.83-.21-.97-.76-.18-.65-.33-1.31-.5-1.97a2.42 2.42 0 0 0-.61-1.13 1.35 1.35 0 0 1-.37-.68c-.05-.24-.24-.31-.4-.15-.38.4-.9.57-1.36.82-.74.4-1.36.9-1.72 1.69-.17.37-.1.6.28.73.21.07.43.12.65.16.35.08.6.28.7.63.06.23 0 .39-.24.48-.32.12-.65.18-.98.18h-1.88c-.7 0-1.08-.33-1.15-1.05-.1-1.05.1-2.03.81-2.85.12-.14.34-.28.2-.5-.12-.17-.35-.12-.53-.08-.86.16-1.74.28-2.43.9a4.8 4.8 0 0 0-1.35 1.69c-.16.4-.12.5.28.67l.51.2c.2.08.35.2.34.44 0 .24-.13.4-.34.49-.23.1-.48.1-.72.1l-1.81-.01c-.19 0-.36-.02-.52-.15-.13-.1-.28-.09-.43-.02-1.1.51-2.3.03-2.79-1.12-.21-.5-.27-1.02 0-1.52.4-.73.42-1.53.54-2.32.04-.25 0-.5-.12-.74-.94-1.74.09-4.24 1.82-5.22a12.81 12.81 0 0 1 3.7-1.52 6.37 6.37 0 0 1 2.52.11c1.2.23 2.38.5 3.6.61a8.6 8.6 0 0 0 1.6.02c1.15-.12 2.3 0 3.41.33 1 .3 2.02.23 3.03.2a.6.6 0 0 0 .38-.17c.42-.35.9-.3 1.25.15.1.13.23.17.36.22.86.34 1.66.82 2.38 1.4.47.4.47.65-.07.96-.34.19-.56.39-.5.8.02.18-.12.21-.24.24-1.3.34-2.62.6-3.96.68-.44.02-.89.08-1.32.16-.24.05-.36.18-.39.42a7.16 7.16 0 0 0 1.04 4.5c.11.2.34.28.54.36.26.11.53.2.79.3.27.12.48.31.48.64 0 .32-.26.42-.5.53-.31.15-.64.16-.98.15h-.94Zm-15.65-.91.25-.84c.15-.6.33-1.19.37-1.8 0-.12 0-.24-.13-.29-.11-.04-.2.03-.25.11-.34.5-.72.95-1 1.48a.51.51 0 0 0 0 .54c.2.32.45.6.76.8Z"/><path fill="#FAFAFC" d="M15.57 27.68c0 1.07-.46 1.82-1.26 2.14-.96.37-2.05.17-2.65-.53-.66-.76-.68-1.66-.36-2.54.28-.8.92-1.2 1.75-1.28.94-.08 1.74.18 2.24 1.04.2.36.3.76.28 1.17Zm-.9.04c.06-1.04-.74-1.65-1.68-1.43-.53.13-.86.5-.93 1.03-.09.62-.08 1.24.52 1.64.45.3.95.31 1.43.06.52-.26.67-.75.65-1.3ZM26.71 27.72c0 1.4-.85 2.27-2.23 2.27-1.35 0-2.2-.87-2.21-2.25-.01-1.39.84-2.28 2.18-2.28 1.4-.01 2.25.85 2.26 2.26Zm-3.54 0c0 .48.09.92.51 1.22.47.32.98.34 1.47.09.6-.31.69-.88.66-1.48-.03-.54-.25-.96-.75-1.19a1.01 1.01 0 0 0-.12-.04c-.97-.32-1.77.31-1.77 1.4Z"/><path fill="#FAF9FC" d="M18.82 25.45c.8 0 1.38.25 1.75.92.11.2.09.33-.17.37a.91.91 0 0 0-.23.06c-.21.09-.34.09-.45-.18-.2-.47-1.14-.6-1.5-.24-.24.24-.16.6.17.75.29.13.6.14.9.2.28.06.54.13.79.24.41.17.7.45.73.91.05.49-.1.9-.52 1.19-.72.48-2.08.4-2.74-.16-.24-.22-.4-.5-.48-.82-.03-.11-.03-.2.12-.21.06-.01.12-.02.18-.05.29-.09.5-.16.65.28.19.56 1.23.74 1.7.37.32-.25.28-.66-.08-.83-.29-.14-.6-.17-.91-.23a3.62 3.62 0 0 1-.78-.23c-.47-.2-.75-.55-.74-1.08 0-.52.28-.9.75-1.1.27-.12.56-.17.86-.16Z"/></g><defs><clipPath id="a"><path fill="#fff" d="M7.5 10h25v20h-25z"/></clipPath></defs></svg>