<svg
  width="68"
  height="28"
  viewBox="0 0 68 28"
  fill="none"
  xmlns="http://www.w3.org/2000/svg"
>
  <g clip-path="url(#clip0_1_10)">
  <path
    d="M12 22C12 23.53 12.58 24.93 13.54 26H4C2.93913 26 1.92172 25.5786 1.17157 24.8284C0.421427 24.0783 0 23.0609 0 22V6C0 4.93913 0.421427 3.92172 1.17157 3.17157C1.92172 2.42143 2.93913 2 4 2H13.54C12.5492 3.09674 12.0005 4.52201 12 6V8.01C8.58 8.12 6 10.89 6 14.29C6 17.69 8.69 20.6 12 20.6V22Z"
    fill="#F1F252"
  />
  <path
    d="M11.88 13.3726V13.3926L12 13.5326V18.4426C9.87 17.2526 8.13 14.4626 8.1 12.0826C8.1 10.8626 8.72 10.0226 9.77 10.0026C10.4 9.97261 11.13 10.2026 12 10.6026V13.3726H11.88Z"
    fill="#F1F252"
  />
  <path
    d="M26 22C26 23.53 26.58 24.93 27.54 26H18C16.9391 26 15.9217 25.5786 15.1716 24.8284C14.4214 24.0783 14 23.0609 14 22V6C14 4.93913 14.4214 3.92172 15.1716 3.17157C15.9217 2.42143 16.9391 2 18 2H27.54C26.5492 3.09674 26.0005 4.52201 26 6V8H20.17V11H26V17.01H25.69C25.5078 17.0074 25.3338 16.9339 25.205 16.805C25.0761 16.6762 25.0026 16.5022 25 16.32V12.5H22.41C21.7708 12.5 21.1578 12.7539 20.7059 13.2059C20.2539 13.6578 20 14.2708 20 14.91V17.59C20 18.2292 20.2539 18.8422 20.7059 19.2941C21.1578 19.7461 21.7708 20 22.41 20H26V22Z"
    fill="#0ABF53"
  />
  <path
    d="M48 2H32C30.9391 2 29.9217 2.42143 29.1716 3.17157C28.4214 3.92172 28 4.93913 28 6V22C28 23.0609 28.4214 24.0783 29.1716 24.8284C29.9217 25.5786 30.9391 26 32 26H48C49.0609 26 50.0783 25.5786 50.8284 24.8284C51.5786 24.0783 52 23.0609 52 22V6C52 4.93913 51.5786 3.92172 50.8284 3.17157C50.0783 2.42143 49.0609 2 48 2ZM40 19.98C39.86 20 39.71 20 39.56 20L39 19.98C37.9478 19.9217 36.9146 19.6744 35.95 19.25V16.11C36.58 16.45 37.29 16.75 38 16.94C38.6515 17.114 39.3269 17.1815 40 17.14C40.5 17.07 40.83 16.84 40.83 16.36C40.83 15.95 40.5 15.69 40 15.47C39.71 15.33 39.36 15.21 39 15.07C38.6602 14.9609 38.3265 14.8341 38 14.69C36.86 14.17 35.8 13.4 35.8 11.73C35.8 10.06 36.63 8.99 38 8.42C38.6397 8.17464 39.3154 8.03612 40 8.01L40.27 8C41.37 8 42.45 8.17 43.55 8.61V11.71C42.55 11.17 41.28 10.86 40.27 10.86L40 10.87C39.46 10.92 39.15 11.13 39.15 11.58C39.15 11.96 39.49 12.2 40 12.41C41.43 13 44.19 13.37 44.2 16.28C44.2 18.51 42.51 19.85 40 19.98Z"
    fill="#6772E5"
  />
  <path
    d="M8.1 11.69C8.13 14.07 9.87 16.86 12 18.05V20.59C8.69 20.59 6 17.77 6 14.28C5.98008 13.4733 6.11963 12.6706 6.41065 11.9179C6.70167 11.1653 7.13844 10.4775 7.69588 9.89404C8.25333 9.31057 8.9205 8.84292 9.6591 8.51789C10.3977 8.19287 11.1932 8.01687 12 8.00001V10.21C11.13 9.81001 10.4 9.58001 9.77 9.61001C8.72 9.63001 8.1 10.47 8.1 11.69Z"
    fill="#1C1B18"
  />
</g>
<g clip-path="url(#clip1_1_10)">
  <rect x="42" y="2" width="24" height="24" rx="3" fill="white" />
  <path
    fill-rule="evenodd"
    clip-rule="evenodd"
    d="M66 2H42V15.125H50.3435L50.9631 13.055H48.75L49.0893 11.525H51.332L52.2762 8.3H54.209L53.2648 11.525H56.1566L57.1008 8.3H59.0484L58.1041 11.525H66V2ZM66 13.055H57.7352L57.1156 15.125H59.4L59.0484 16.655H56.7467L55.8615 19.7H53.9139L54.8139 16.655H51.9369L51.0221 19.7H49.0893L49.9893 16.655H42V26H66V13.055ZM52.9107 13.055L52.3058 15.125H55.1828L55.7877 13.055H52.9107Z"
    fill="#0C1E3D"
  />
</g>
<rect
  x="41"
  y="1"
  width="26"
  height="26"
  rx="4"
  stroke="white"
  stroke-width="2"
/>
<defs>
  <clipPath id="clip0_1_10">
    <rect
      width="52"
      height="24"
      fill="white"
      transform="translate(0 2)"
    />
  </clipPath>
  <clipPath id="clip1_1_10">
    <rect x="42" y="2" width="24" height="24" rx="3" fill="white" />
  </clipPath>
  </defs>
</svg>
