<svg viewBox="0 0 64 64" fill="none" xmlns="http://www.w3.org/2000/svg">
<rect width="64" height="64" rx="12" fill="#00A1E0"/>
<path fill-rule="evenodd" clip-rule="evenodd" d="M28.6444 21.0496C29.9349 19.7062 31.731 18.8743 33.7153 18.8743C36.361 18.8743 38.6539 20.3441 39.8886 22.5341C40.9845 22.0442 42.1716 21.7913 43.3721 21.7919C48.1343 21.7919 52 25.6869 52 30.4933C52 35.2996 48.1343 39.1947 43.3721 39.1947C42.79 39.1947 42.2227 39.1362 41.6671 39.0257C40.5868 40.9511 38.5216 42.2593 36.1699 42.2593C35.2124 42.2612 34.2672 42.044 33.4066 41.6243C32.3116 44.1965 29.7614 46.0044 26.7924 46.0044C23.691 46.0044 21.06 44.0495 20.0459 41.3009C19.5945 41.3962 19.1344 41.4441 18.673 41.4438C14.9838 41.4438 12 38.416 12 34.6973C12 32.1986 13.3434 30.0232 15.3365 28.8474C14.9137 27.8733 14.696 26.8226 14.6971 25.7607C14.6971 21.4688 18.1806 18 22.4726 18C24.986 18 27.2348 19.1979 28.6458 21.0573" fill="white"/>
<path fill-rule="evenodd" clip-rule="evenodd" d="M35.6469 27.7929C35.7244 27.8064 35.8009 27.8245 35.8761 27.8473C35.8926 27.8537 35.9369 27.8758 35.9187 27.9281L35.7415 28.4149C35.7266 28.4515 35.7165 28.4738 35.6409 28.4508C35.6221 28.4452 35.5942 28.4371 35.5223 28.4218C35.4701 28.4109 35.4016 28.4026 35.3318 28.4026C35.2475 28.4014 35.1635 28.4135 35.083 28.4384C35.0095 28.4625 34.9429 28.504 34.8888 28.5592C34.8309 28.6173 34.7625 28.7018 34.7262 28.8066C34.6523 29.02 34.6172 29.2449 34.6068 29.3111C34.6053 29.321 34.6043 29.3274 34.6038 29.3296H35.345C35.4071 29.3293 35.4268 29.3581 35.4207 29.4043L35.3343 29.8864C35.3209 29.9562 35.2566 29.9538 35.2566 29.9538H34.4928L33.9705 32.9095C33.9156 33.2151 33.8471 33.4773 33.7667 33.6885C33.6855 33.9016 33.6005 34.0579 33.4654 34.2071C33.3405 34.3454 33.1992 34.4475 33.037 34.5062C32.8757 34.5644 32.6813 34.5944 32.4678 34.5944C32.366 34.5944 32.2572 34.5925 32.1282 34.562C32.0353 34.5401 31.9846 34.5246 31.9164 34.5002C31.8873 34.4897 31.8642 34.4536 31.8806 34.4077C31.8968 34.3613 32.0334 33.9857 32.0526 33.9365C32.0763 33.8762 32.1364 33.8991 32.1364 33.8991L32.1394 33.9004C32.1791 33.9171 32.2077 33.9291 32.2615 33.9397C32.3166 33.9507 32.3913 33.9601 32.4474 33.9601C32.5482 33.9601 32.6403 33.9478 32.7202 33.9209C32.8171 33.8884 32.8732 33.8327 32.9325 33.757C32.9936 33.6788 33.0433 33.5711 33.0941 33.4273C33.1457 33.2817 33.1923 33.0894 33.233 32.8557L33.7529 29.9538H33.2405C33.1788 29.9541 33.159 29.9253 33.165 29.8792L33.2514 29.3971C33.2649 29.3269 33.3292 29.3296 33.3292 29.3296H33.8555L33.8839 29.1725C33.9625 28.707 34.1194 28.3532 34.3498 28.1209C34.5819 27.8869 34.9125 27.7685 35.3318 27.7685C35.4374 27.7673 35.5428 27.7755 35.6469 27.7929ZM25.4512 32.9323C25.49 32.9323 25.5176 32.9007 25.5176 32.8619V27.9133C25.5176 27.8746 25.49 27.8433 25.4512 27.8433H24.8363C24.7974 27.8433 24.7698 27.8746 24.7698 27.9133V32.8619C24.7698 32.9007 24.7974 32.9323 24.8363 32.9323H25.4512ZM17.8374 32.5986C17.8253 32.5872 17.8056 32.5685 17.8264 32.5143L17.8258 32.5131L17.9875 32.0633C18.0131 31.9863 18.0719 32.012 18.0954 32.0263C18.1134 32.0373 18.1296 32.0479 18.1462 32.0587C18.1707 32.0747 18.1963 32.0914 18.2306 32.1114C18.7083 32.4133 19.1491 32.4157 19.2874 32.4157C19.6431 32.4157 19.8651 32.2261 19.8651 31.9718V31.958C19.8651 31.6816 19.5241 31.5764 19.1302 31.4553L19.0431 31.4282C18.5022 31.2739 17.9231 31.0505 17.9231 30.3655V30.3516C17.9231 29.7019 18.4479 29.2477 19.1989 29.2477L19.2808 29.2474C19.7218 29.2474 20.148 29.3753 20.4567 29.5635C20.4847 29.5802 20.5121 29.6127 20.4965 29.6558C20.4818 29.6969 20.3447 30.0639 20.3289 30.1055C20.3 30.1824 20.2203 30.131 20.2203 30.131C19.9513 29.9824 19.531 29.8649 19.1782 29.8649C18.8607 29.8649 18.655 30.0339 18.655 30.2632V30.2769C18.655 30.5444 19.0062 30.6594 19.4134 30.7913L19.4838 30.8141C20.0218 30.9832 20.5979 31.2198 20.5979 31.8695V31.8833C20.5979 32.5859 20.0879 33.0224 19.2677 33.0224C18.865 33.0224 18.4799 32.9592 18.0713 32.7431C18.0534 32.7328 18.0356 32.7227 18.0178 32.7127C17.9593 32.6797 17.901 32.6468 17.8435 32.6051C17.8421 32.6031 17.8399 32.601 17.8374 32.5986ZM29.8456 32.5976C29.8334 32.5862 29.8135 32.5675 29.8343 32.5131L29.8326 32.5119L29.9943 32.0622C30.0179 31.9887 30.0872 32.0157 30.102 32.0251C30.1119 32.0315 30.1213 32.0377 30.1306 32.0437C30.1624 32.0644 30.1927 32.0842 30.2374 32.1102C30.7136 32.4121 31.1556 32.4145 31.2942 32.4145C31.6499 32.4145 31.8718 32.2249 31.8718 31.9706V31.9568C31.8718 31.6805 31.5323 31.5752 31.1369 31.4541L31.05 31.4271C30.5091 31.2727 29.93 31.0493 29.93 30.3644V30.3504C29.93 29.7007 30.4548 29.2466 31.2058 29.2466L31.2879 29.2463C31.7288 29.2463 32.1551 29.3741 32.4637 29.5623C32.4917 29.579 32.5191 29.6115 32.5034 29.6546C32.4902 29.6957 32.3529 30.0628 32.3373 30.1043C32.3082 30.1812 32.2286 30.1298 32.2286 30.1298C31.9581 29.9812 31.5392 29.8637 31.1864 29.8637C30.869 29.8637 30.6632 30.0328 30.6632 30.2621V30.2757C30.6632 30.5432 31.0145 30.6582 31.4216 30.7902L31.492 30.813C32.0315 30.982 32.6062 31.2186 32.6062 31.8683V31.8821C32.6062 32.5847 32.0961 33.0212 31.276 33.0212C30.8732 33.0212 30.4881 32.958 30.0795 32.742C30.0615 32.7315 30.0435 32.7214 30.0254 32.7112C29.9671 32.6783 29.9089 32.6455 29.8517 32.6039C29.8503 32.602 29.8481 32.5999 29.8456 32.5976ZM37.8152 32.068C37.9602 31.8461 38.0342 31.533 38.0342 31.1362V31.1376C38.0342 30.7408 37.9611 30.4292 37.8152 30.2102C37.6712 29.9937 37.4537 29.8883 37.1479 29.8883C36.8422 29.8883 36.6259 29.9926 36.4836 30.2102C36.3404 30.4292 36.2675 30.7408 36.2675 31.1376C36.2675 31.5345 36.34 31.849 36.4836 32.0695C36.6261 32.2879 36.8437 32.3943 37.1479 32.3943C37.4522 32.3943 37.6706 32.287 37.8152 32.068ZM38.4076 29.806C38.5472 29.9735 38.6517 30.1734 38.7192 30.4013H38.7177C38.7844 30.6276 38.8184 30.876 38.8184 31.1376C38.8184 31.4007 38.7844 31.6477 38.7177 31.874C38.6501 32.1019 38.5456 32.3017 38.4061 32.4693C38.2665 32.6369 38.0886 32.7709 37.8799 32.8662C37.6712 32.9614 37.4243 33.0099 37.1465 33.0099C36.8687 33.0099 36.6217 32.9614 36.4116 32.8662C36.2028 32.7706 36.0251 32.6369 35.8854 32.4693C35.7457 32.3017 35.6409 32.1019 35.5737 31.874C35.5069 31.6477 35.4729 31.4007 35.4729 31.1376C35.4729 30.8745 35.5069 30.6276 35.5737 30.4013C35.6414 30.1734 35.746 29.9735 35.8854 29.806C36.025 29.6384 36.2028 29.5038 36.4116 29.4062C36.6217 29.3087 36.8672 29.2592 37.1465 29.2592C37.4257 29.2592 37.6727 29.3084 37.8814 29.4062C38.0916 29.5032 38.2678 29.6384 38.4076 29.806ZM44.2597 32.2412C44.2597 32.2412 44.3247 32.2161 44.3472 32.2826H44.3478L44.5168 32.7471C44.5383 32.8047 44.4889 32.8285 44.4889 32.8285C44.2302 32.931 43.8701 33.002 43.5188 33.002C42.925 33.002 42.4693 32.8315 42.1665 32.4934C41.8637 32.1568 41.7109 31.6968 41.7109 31.1294C41.7109 30.8663 41.7484 30.6179 41.8226 30.3916C41.8976 30.1637 42.0093 29.9638 42.1562 29.7963C42.3032 29.6287 42.4884 29.4939 42.7074 29.3965C42.9264 29.2989 43.1822 29.2496 43.4703 29.2496C43.6643 29.2496 43.8363 29.2614 43.9847 29.284C44.1435 29.308 44.3531 29.3649 44.4418 29.3996C44.4581 29.4059 44.5028 29.4279 44.4846 29.4801C44.4413 29.6024 44.4071 29.6963 44.371 29.795C44.3534 29.8434 44.3353 29.8929 44.3156 29.9475C44.2899 30.0182 44.2362 29.9948 44.2362 29.9948C44.0098 29.924 43.7938 29.8912 43.5116 29.8912C43.1735 29.8912 42.9178 30.0059 42.7517 30.2263C42.5834 30.4498 42.4896 30.7408 42.4886 31.1288C42.4871 31.5551 42.5929 31.8696 42.7825 32.0651C42.9707 32.2604 43.2352 32.3591 43.566 32.3591C43.6997 32.3591 43.8267 32.3501 43.9408 32.3322C44.0539 32.3145 44.1602 32.2793 44.2597 32.2412ZM45.5457 30.7537C45.5457 30.7538 45.5457 30.7539 45.5457 30.754L45.5383 30.7537L45.5457 30.7537ZM45.5457 30.7537L47.1992 30.754C47.1837 30.5409 47.1419 30.3505 47.0464 30.2072C46.9023 29.9903 46.701 29.8706 46.3967 29.8706C46.0925 29.8706 45.8759 29.9897 45.7338 30.2072C45.6389 30.3497 45.5785 30.5334 45.5457 30.7537ZM47.5564 29.7266C47.6505 29.828 47.795 30.05 47.8533 30.269L47.8564 30.2694C47.9961 30.7594 47.9367 31.1875 47.9268 31.2583C47.9262 31.2628 47.9258 31.2659 47.9256 31.2674C47.9193 31.3271 47.8582 31.3277 47.8582 31.3277L45.5358 31.3259C45.5491 31.6787 45.6343 31.9271 45.8048 32.0976C45.9724 32.2641 46.2384 32.3704 46.5985 32.371C47.101 32.3723 47.3408 32.2798 47.5052 32.2165C47.5211 32.2104 47.5363 32.2045 47.551 32.199C47.551 32.199 47.6151 32.1761 47.6383 32.2394L47.7897 32.6642C47.8199 32.7358 47.7957 32.7606 47.77 32.775C47.6259 32.8559 47.2732 33.0051 46.6029 33.0073C46.2781 33.0083 45.9944 32.9614 45.7607 32.871C45.5255 32.7799 45.3301 32.6505 45.1772 32.4844C45.0243 32.3198 44.911 32.1214 44.8406 31.895C44.7709 31.6702 44.7355 31.4218 44.7355 31.1542C44.7355 30.8926 44.7696 30.6427 44.8372 30.4149C44.9048 30.1842 45.0108 29.9828 45.1518 29.8123C45.2929 29.6418 45.4722 29.5054 45.6853 29.4052C45.8984 29.3056 46.1615 29.2567 46.4511 29.2567C46.6794 29.2563 46.9054 29.3022 47.1155 29.3915C47.261 29.4532 47.4065 29.5664 47.5564 29.7266ZM26.9817 30.7537C26.9817 30.7538 26.9817 30.7539 26.9817 30.754L26.9744 30.7537L26.9817 30.7537ZM27.1698 30.2072C27.0751 30.3497 27.0145 30.5334 26.9817 30.7537L28.6353 30.754C28.6195 30.5409 28.5778 30.3505 28.4824 30.2072C28.3384 29.9903 28.137 29.8706 27.8327 29.8706C27.5285 29.8706 27.3121 29.9897 27.1698 30.2072ZM28.9924 29.7266C29.0865 29.828 29.2311 30.05 29.2893 30.269L29.291 30.2694C29.4308 30.7595 29.3714 31.1875 29.3615 31.2583C29.3609 31.2628 29.3605 31.2659 29.3603 31.2674C29.354 31.3271 29.2929 31.3277 29.2929 31.3277L26.9705 31.3259C26.9838 31.6787 27.069 31.9271 27.2395 32.0976C27.4071 32.2641 27.6746 32.3704 28.0332 32.371C28.5357 32.3723 28.7755 32.2798 28.9399 32.2165C28.9558 32.2104 28.971 32.2045 28.9857 32.199C28.9857 32.199 29.0498 32.1761 29.0731 32.2394L29.2245 32.6642C29.2549 32.7358 29.2305 32.7606 29.205 32.775C29.0609 32.8559 28.7082 33.0051 28.0379 33.0073C27.7116 33.0083 27.4294 32.9614 27.1957 32.871C26.9605 32.7799 26.765 32.6505 26.6122 32.4844C26.4608 32.3198 26.3473 32.1214 26.2771 31.895C26.207 31.6702 26.1718 31.4218 26.1718 31.1542C26.1718 30.8926 26.2058 30.6427 26.2732 30.4149C26.3409 30.1842 26.4471 29.9828 26.5878 29.8123C26.7289 29.6418 26.9082 29.5054 27.1213 29.4052C27.3345 29.3056 27.5976 29.2567 27.8871 29.2567C28.1154 29.2563 28.3414 29.3022 28.5515 29.3915C28.697 29.4532 28.8425 29.5664 28.9924 29.7266ZM21.8358 32.1304C21.866 32.1775 21.8786 32.1953 21.9696 32.2679L21.9709 32.2687C21.9694 32.2682 22.1781 32.4324 22.65 32.404C22.9821 32.3841 23.2761 32.3207 23.2761 32.3207H23.2758V31.2668C23.0676 31.2349 22.8574 31.217 22.6467 31.2132C22.1734 31.2073 21.9721 31.381 21.9735 31.3808C21.8339 31.4792 21.7663 31.6262 21.7663 31.829C21.7663 31.9584 21.7898 32.0594 21.8358 32.1304ZM22.531 30.6261C22.6766 30.6261 22.7986 30.6295 22.8926 30.6364L22.8948 30.6419C22.8948 30.6419 23.0786 30.6585 23.277 30.6873V30.5892C23.277 30.2806 23.2125 30.1337 23.0859 30.0366C22.9566 29.9374 22.7625 29.8867 22.5127 29.8867C22.5127 29.8867 21.9483 29.8793 21.5029 30.1218C21.4823 30.134 21.4648 30.1409 21.4648 30.1409C21.4648 30.1409 21.4091 30.1605 21.3887 30.1033L21.2241 29.6624C21.1991 29.5984 21.2449 29.5702 21.2449 29.5702C21.4537 29.4068 21.9593 29.3086 21.9593 29.3086C22.1268 29.2749 22.4076 29.2514 22.581 29.2514C23.044 29.2514 23.4012 29.3587 23.6452 29.5718C23.8901 29.785 24.0141 30.1304 24.0141 30.5948L24.0154 32.7114C24.0154 32.7114 24.0198 32.7727 23.9625 32.7872C23.9625 32.7872 23.8767 32.8106 23.7994 32.8284C23.6057 32.8703 23.4111 32.9082 23.2158 32.9419C22.9866 32.9805 22.7499 33.0005 22.5118 33.0005C22.2854 33.0005 22.0797 32.9795 21.8974 32.9379C21.7137 32.8967 21.5545 32.8274 21.4256 32.7336C21.296 32.6397 21.1919 32.5149 21.1228 32.3705C21.0523 32.225 21.0165 32.0472 21.0165 31.8414C21.0165 31.6386 21.0584 31.4592 21.1406 31.3064C21.222 31.1549 21.3372 31.0241 21.4772 30.9242C21.6168 30.8237 21.78 30.7481 21.9608 30.6993C22.1401 30.6508 22.3326 30.6261 22.531 30.6261ZM41.5646 29.4169C41.5646 29.4254 41.5628 29.4337 41.5595 29.4415L41.561 29.4319C41.5389 29.4951 41.4259 29.8124 41.3861 29.9184C41.3709 29.9587 41.3461 29.986 41.3014 29.981C41.3014 29.981 41.1684 29.9499 41.0471 29.9499C40.9417 29.9499 40.8368 29.9646 40.7355 29.9937C40.6275 30.0272 40.5292 30.0861 40.4489 30.1656C40.3647 30.248 40.2963 30.3627 40.2461 30.5066C40.195 30.6522 40.1695 30.8829 40.1695 31.1152V32.8496C40.1695 32.8682 40.1621 32.8861 40.1489 32.8993C40.1357 32.9125 40.1179 32.9199 40.0992 32.92H39.4907C39.472 32.9199 39.4542 32.9125 39.441 32.8993C39.4278 32.8861 39.4203 32.8682 39.4203 32.8496V29.3954C39.4203 29.3566 39.4482 29.3253 39.4867 29.3253H40.0805C40.1196 29.3253 40.1471 29.3566 40.1471 29.3954L40.1474 29.6777C40.2356 29.5571 40.3947 29.4529 40.5384 29.3881C40.6839 29.3228 40.8456 29.2737 41.1366 29.292C41.288 29.3014 41.4851 29.343 41.5247 29.358C41.5325 29.361 41.5397 29.3657 41.5457 29.3716C41.5517 29.3775 41.5565 29.3845 41.5598 29.3923C41.563 29.4001 41.5647 29.4085 41.5646 29.4169Z" fill="#00A1E0"/>
</svg>
